<svg xmlns="http://www.w3.org/2000/svg" viewBox="0 0 100 100">
  <defs>
    <linearGradient id="grad1" x1="0%" y1="0%" x2="100%" y2="100%">
      <stop offset="0%" style="stop-color:#00d4ff;stop-opacity:1" />
      <stop offset="50%" style="stop-color:#667eea;stop-opacity:1" />
      <stop offset="100%" style="stop-color:#9333ea;stop-opacity:1" />
    </linearGradient>
    <linearGradient id="grad2" x1="0%" y1="0%" x2="100%" y2="100%">
      <stop offset="0%" style="stop-color:#ff6b35;stop-opacity:1" />
      <stop offset="100%" style="stop-color:#f72585;stop-opacity:1" />
    </linearGradient>
    <filter id="glow">
      <feGaussianBlur stdDeviation="2" result="coloredBlur"/>
      <feMerge>
        <feMergeNode in="coloredBlur"/>
        <feMergeNode in="SourceGraphic"/>
      </feMerge>
    </filter>
  </defs>
  
  <rect width="100" height="100" rx="22" fill="#0a0a0a"/>
  <rect x="2" y="2" width="96" height="96" rx="20" fill="none" stroke="url(#grad1)" stroke-width="0.5" opacity="0.3"/>
  
  <g transform="translate(50, 35)">
    <path d="M -18 -8 L -18 8 L 18 8 L 18 -8 Z" fill="none" stroke="url(#grad1)" stroke-width="3" stroke-linecap="round" stroke-linejoin="round" filter="url(#glow)"/>
    
    <circle cx="-15" cy="0" r="2.5" fill="url(#grad2)"/>
    <circle cx="-7.5" cy="0" r="2.5" fill="url(#grad2)"/>
    <circle cx="0" cy="0" r="2.5" fill="url(#grad2)"/>
    <circle cx="7.5" cy="0" r="2.5" fill="url(#grad2)"/>
    <circle cx="15" cy="0" r="2.5" fill="url(#grad2)"/>
    
    <path d="M -20 -8 L -20 8" stroke="url(#grad1)" stroke-width="3" stroke-linecap="round"/>
    <path d="M 20 -8 L 20 8" stroke="url(#grad1)" stroke-width="3" stroke-linecap="round"/>
  </g>
  
  <g transform="translate(50, 55)">
    <path d="M -12 0 Q -12 -8, 0 -8 Q 12 -8, 12 0" fill="none" stroke="url(#grad1)" stroke-width="3" stroke-linecap="round" opacity="0.6"/>
  </g>
  
  <text x="50" y="82" font-family="'Montserrat', sans-serif" font-size="16" font-weight="900" fill="url(#grad1)" text-anchor="middle" letter-spacing="1">AEG</text>
</svg>

